<mxfile host="app.diagrams.net" modified="2023-12-25T16:26:17.093Z" agent="Mozilla/5.0 (Windows NT 10.0; Win64; x64) AppleWebKit/537.36 (KHTML, like Gecko) Chrome/118.0.0.0 Safari/537.36" etag="1Fpw4r__fUDDb3VFJuhK" version="21.7.4" type="github">
  <diagram name="Trang-1" id="79_wRi7BU0wuJ-L7RgjF">
    <mxGraphModel dx="1006" dy="531" grid="1" gridSize="10" guides="1" tooltips="1" connect="1" arrows="1" fold="1" page="1" pageScale="1" pageWidth="827" pageHeight="1169" math="0" shadow="0">
      <root>
        <mxCell id="0" />
        <mxCell id="1" parent="0" />
        <mxCell id="HozqFtNCupNvbS1xR7QD-1" value="Actor" style="shape=umlActor;verticalLabelPosition=bottom;verticalAlign=top;html=1;outlineConnect=0;fillColor=#f8cecc;strokeColor=#b85450;" vertex="1" parent="1">
          <mxGeometry x="80" y="360" width="30" height="60" as="geometry" />
        </mxCell>
        <mxCell id="HozqFtNCupNvbS1xR7QD-2" value="Xác thực khuôn mặt&amp;nbsp;" style="ellipse;whiteSpace=wrap;html=1;" vertex="1" parent="1">
          <mxGeometry x="200" y="210" width="130" height="40" as="geometry" />
        </mxCell>
        <mxCell id="HozqFtNCupNvbS1xR7QD-3" value="Điểm danh&amp;nbsp;" style="ellipse;whiteSpace=wrap;html=1;" vertex="1" parent="1">
          <mxGeometry x="350" y="390" width="120" height="80" as="geometry" />
        </mxCell>
        <mxCell id="HozqFtNCupNvbS1xR7QD-8" value="" style="endArrow=classic;html=1;rounded=0;" edge="1" parent="1" source="HozqFtNCupNvbS1xR7QD-1" target="HozqFtNCupNvbS1xR7QD-2">
          <mxGeometry width="50" height="50" relative="1" as="geometry">
            <mxPoint x="390" y="460" as="sourcePoint" />
            <mxPoint x="440" y="410" as="targetPoint" />
            <Array as="points" />
          </mxGeometry>
        </mxCell>
      </root>
    </mxGraphModel>
  </diagram>
</mxfile>
